<?xml version="1.0" encoding="UTF-8" standalone="no"?>
<!DOCTYPE svg PUBLIC "-//W3C//DTD SVG 1.1//EN" "http://www.w3.org/Graphics/SVG/1.1/DTD/svg11.dtd">
<svg     width="400"
   height="400"
   viewBox="0 0 105.83333 105.83334" version="1.1" xmlns="http://www.w3.org/2000/svg" xmlns:xlink="http://www.w3.org/1999/xlink" xml:space="preserve" xmlns:serif="http://www.serif.com/" style="fill-rule:evenodd;clip-rule:evenodd;stroke-linejoin:round;stroke-miterlimit:2;">
  <g
     id="layer1"
     transform="translate(0,-191.16664)">
    <g
       aria-label="SmartCGMS"
       transform="matrix(0.26458333,0,0,0.26458333,0,191.16664)"
       style="font-style:normal;font-variant:normal;font-weight:normal;font-stretch:normal;font-size:48px;line-height:2;font-family:sans-serif;-inkscape-font-specification:'sans-serif, Normal';font-variant-ligatures:no-common-ligatures;font-variant-caps:normal;font-variant-numeric:normal;font-feature-settings:normal;text-align:center;letter-spacing:0px;word-spacing:0px;writing-mode:lr-tb;text-anchor:middle;fill:#000000;fill-opacity:1;stroke:none"
       id="flowRoot5080">
      <path
         d="m 90.973633,161.625 v 4.61719 q -2.695313,-1.28907 -5.085938,-1.92188 -2.390625,-0.63281 -4.617187,-0.63281 -3.867188,0 -5.976563,1.5 -2.085937,1.5 -2.085937,4.26562 0,2.32032 1.382812,3.51563 1.40625,1.17187 5.296875,1.89844 l 2.859375,0.58593 q 5.296875,1.00782 7.804688,3.5625 2.53125,2.53125 2.53125,6.79688 0,5.08594 -3.421875,7.71094 -3.398438,2.625 -9.984375,2.625 -2.484375,0 -5.296875,-0.5625 -2.789063,-0.5625 -5.789063,-1.66407 v -4.875 q 2.882813,1.61719 5.648438,2.4375 2.765625,0.82032 5.4375,0.82032 4.054687,0 6.257812,-1.59375 2.203125,-1.59375 2.203125,-4.54688 0,-2.57812 -1.59375,-4.03125 -1.570312,-1.45312 -5.179687,-2.17969 l -2.882813,-0.5625 q -5.296875,-1.05468 -7.664062,-3.30468 -2.367188,-2.25 -2.367188,-6.25782 0,-4.64062 3.257813,-7.3125 3.28125,-2.67187 9.023437,-2.67187 2.460938,0 5.015625,0.44531 2.554688,0.44531 5.226563,1.33594 z"
         style="font-size:48px;line-height:2"
         id="path5088" />
      <path
         d="m 120.71582,174.25781 q 1.61719,-2.90625 3.86719,-4.28906 2.25,-1.38281 5.29687,-1.38281 4.10157,0 6.32813,2.88281 2.22656,2.85937 2.22656,8.15625 v 15.84375 h -4.33594 v -15.70313 q 0,-3.77343 -1.33593,-5.60156 -1.33594,-1.82812 -4.07813,-1.82812 -3.35156,0 -5.29687,2.22656 -1.94532,2.22656 -1.94532,6.07031 v 14.83594 h -4.33593 v -15.70313 q 0,-3.79687 -1.33594,-5.60156 -1.33594,-1.82812 -4.125,-1.82812 -3.30469,0 -5.25,2.25 -1.94531,2.22656 -1.94531,6.04687 v 14.83594 h -4.33594 v -26.25 h 4.33594 v 4.07812 q 1.47656,-2.41406 3.53906,-3.5625 2.0625,-1.14843 4.89844,-1.14843 2.85937,0 4.85156,1.45312 2.01562,1.45313 2.97656,4.21875 z"
         style="font-size:48px;line-height:2"
         id="path5090" />
      <path
         d="m 158.98926,182.27344 q -5.22656,0 -7.24219,1.19531 -2.01562,1.19531 -2.01562,4.07812 0,2.29688 1.5,3.65625 1.52343,1.33594 4.125,1.33594 3.58593,0 5.74218,-2.53125 2.17969,-2.55469 2.17969,-6.77344 v -0.96093 z m 8.60156,-1.78125 v 14.97656 h -4.3125 v -3.98438 q -1.47656,2.39063 -3.67969,3.53907 -2.20312,1.125 -5.39062,1.125 -4.03125,0 -6.42188,-2.25 -2.36718,-2.27344 -2.36718,-6.07032 0,-4.42968 2.95312,-6.67968 2.97656,-2.25 8.85938,-2.25 h 6.04687 v -0.42188 q 0,-2.97656 -1.96875,-4.59375 -1.94531,-1.64062 -5.48437,-1.64062 -2.25,0 -4.38282,0.53906 -2.13281,0.53906 -4.10156,1.61719 v -3.98438 q 2.36719,-0.91406 4.59375,-1.35937 2.22656,-0.46875 4.33594,-0.46875 5.69531,0 8.50781,2.95312 2.8125,2.95313 2.8125,8.95313 z"
         style="font-size:48px;line-height:2"
         id="path5092" />
      <path
         d="m 191.70801,173.25 q -0.72656,-0.42188 -1.59375,-0.60938 -0.84375,-0.21093 -1.875,-0.21093 -3.65625,0 -5.625,2.39062 -1.94531,2.36719 -1.94531,6.82031 v 13.82813 h -4.33594 v -26.25 h 4.33594 v 4.07812 q 1.35937,-2.39062 3.53906,-3.53906 2.17969,-1.17187 5.29687,-1.17187 0.44532,0 0.98438,0.0703 0.53906,0.0469 1.19531,0.16406 z"
         style="font-size:48px;line-height:2"
         id="path5094" />
      <path
         d="m 200.54395,161.76562 v 7.45313 h 8.88281 v 3.35156 h -8.88281 v 14.25 q 0,3.21094 0.86718,4.125 0.89063,0.91406 3.58594,0.91406 h 4.42969 v 3.60938 h -4.42969 q -4.99219,0 -6.89062,-1.85156 -1.89844,-1.875 -1.89844,-6.79688 v -14.25 h -3.16406 v -3.35156 h 3.16406 v -7.45313 z"
         style="font-size:48px;line-height:2"
         id="path5096" />
      <path
         d="m 241.5127,163.17187 v 4.99219 q -2.39063,-2.22656 -5.10938,-3.32812 -2.69531,-1.10157 -5.74219,-1.10157 -6,0 -9.1875,3.67969 -3.1875,3.65625 -3.1875,10.59375 0,6.91406 3.1875,10.59375 3.1875,3.65625 9.1875,3.65625 3.04688,0 5.74219,-1.10156 2.71875,-1.10156 5.10938,-3.32813 v 4.94532 q -2.48438,1.6875 -5.27344,2.53125 -2.76563,0.84375 -5.85938,0.84375 -7.94531,0 -12.51562,-4.85157 -4.57031,-4.875 -4.57031,-13.28906 0,-8.4375 4.57031,-13.28906 4.57031,-4.875 12.51562,-4.875 3.14063,0 5.90625,0.84375 2.78907,0.82031 5.22657,2.48437 z"
         style="font-size:48px;line-height:2"
         id="path5098" />
      <path
         d="m 272.73145,190.47656 v -9.39844 h -7.73438 v -3.89062 h 12.42188 v 15.02344 q -2.74219,1.94531 -6.04688,2.95312 -3.30469,0.98438 -7.05469,0.98438 -8.20312,0 -12.84375,-4.78125 -4.61718,-4.80469 -4.61718,-13.35938 0,-8.57812 4.61718,-13.35937 4.64063,-4.80469 12.84375,-4.80469 3.42188,0 6.49219,0.84375 3.09375,0.84375 5.69531,2.48437 v 5.03907 q -2.625,-2.22657 -5.57812,-3.35157 -2.95313,-1.125 -6.21094,-1.125 -6.42187,0 -9.65625,3.58594 -3.21094,3.58594 -3.21094,10.6875 0,7.07813 3.21094,10.66406 3.23438,3.58594 9.65625,3.58594 2.50781,0 4.47656,-0.42187 1.96875,-0.44532 3.53907,-1.35938 z"
         style="font-size:48px;line-height:2"
         id="path5100" />
      <path
         d="m 286.09082,160.47656 h 7.05469 l 8.92969,23.8125 8.97656,-23.8125 h 7.05469 v 34.99219 h -4.61719 v -30.72656 l -9.02344,24 h -4.75781 l -9.02344,-24 v 30.72656 h -4.59375 z"
         style="font-size:48px;line-height:2"
         id="path5102" />
      <path
         d="m 348.50488,161.625 v 4.61719 q -2.69531,-1.28907 -5.08593,-1.92188 -2.39063,-0.63281 -4.61719,-0.63281 -3.86719,0 -5.97656,1.5 -2.08594,1.5 -2.08594,4.26562 0,2.32032 1.38281,3.51563 1.40625,1.17187 5.29688,1.89844 l 2.85937,0.58593 q 5.29688,1.00782 7.80469,3.5625 2.53125,2.53125 2.53125,6.79688 0,5.08594 -3.42188,7.71094 -3.39843,2.625 -9.98437,2.625 -2.48438,0 -5.29688,-0.5625 -2.78906,-0.5625 -5.78906,-1.66407 v -4.875 q 2.88281,1.61719 5.64844,2.4375 2.76562,0.82032 5.4375,0.82032 4.05469,0 6.25781,-1.59375 2.20313,-1.59375 2.20313,-4.54688 0,-2.57812 -1.59375,-4.03125 -1.57032,-1.45312 -5.17969,-2.17969 l -2.88281,-0.5625 q -5.29688,-1.05468 -7.66407,-3.30468 -2.36718,-2.25 -2.36718,-6.25782 0,-4.64062 3.25781,-7.3125 3.28125,-2.67187 9.02344,-2.67187 2.46093,0 5.01562,0.44531 2.55469,0.44531 5.22656,1.33594 z"
         style="font-size:48px;line-height:2"
         id="path5104" />
    </g>
  </g>
</svg>
